<?xml version="1.0" encoding="UTF-8"?>
<svg width="24px" height="24px" viewBox="0 0 24 24" version="1.1" xmlns="http://www.w3.org/2000/svg" xmlns:xlink="http://www.w3.org/1999/xlink">
    <title>Peach</title>
    <g id="Peach" stroke="none" stroke-width="1" fill="none" fill-rule="evenodd" stroke-linecap="round">
        <path d="M11.7340035,20.4207539 C7.23300418,19.3867875 4.76089511,17.2206549 4.31767628,13.9223567 C3.94435925,11.1442461 5.2127244,8.40423045 7.96251924,7.67507001 C9.42725639,7.28670614 10.9137402,7.56339882 12.0945732,8.31809274 C13.2742303,7.56322315 14.7602916,7.28677662 16.224625,7.67498491 C18.974397,8.40423045 20.3438255,11.1519293 19.8694451,13.9223567 C19.289815,17.3074522 16.6978536,19.5000102 12.0935607,20.5000306 L12.0935607,20.5000306 Z M14.275622,11.2819506 C13.5387897,8.56082108 10.7123324,6.94597803 7.9625007,7.67500081 M12,8 C12,6.20842913 13.1464165,4.61786116 14.8460499,4.0513167 L15,4 M12,8 L12,5.45941171 C12,4.02936865 10.990621,2.7981242 9.58834841,2.51766968 L7,2 L7,2.54058829 C7,3.97063135 8.009379,5.2018758 9.41165159,5.48233032 L12,6" id="Combined-Shape" stroke="#000000"></path>
    </g>
</svg>